<?xml version="1.0" encoding="UTF-8" ?>
<!DOCTYPE svg PUBLIC "-//W3C//DTD SVG 1.1//EN" "http://www.w3.org/Graphics/SVG/1.1/DTD/svg11.dtd">
<svg width="318pt" height="102pt" viewBox="0 0 318 102" version="1.1" xmlns="http://www.w3.org/2000/svg">
<g id="#131212ff">
</g>
<g id="#e50914ff">
<path fill="#e50914" opacity="1.00" d=" M 48.01 26.00 C 50.97 26.00 53.94 26.00 56.90 26.00 C 60.81 37.34 65.34 48.50 68.61 60.04 C 69.41 48.72 68.82 37.35 69.00 26.01 C 72.19 25.98 75.37 25.97 78.55 26.11 C 78.45 44.71 78.42 63.31 78.55 81.92 C 75.12 82.45 71.66 82.81 68.22 83.24 C 64.68 72.38 60.37 61.76 57.36 50.74 C 57.73 62.09 57.38 73.45 57.55 84.80 C 54.34 85.15 51.14 85.55 47.96 86.08 C 47.96 66.06 48.01 46.03 48.01 26.00 Z" />
<path fill="#e50914" opacity="1.00" d=" M 87.79 26.01 C 96.36 26.04 104.93 25.90 113.50 26.09 C 113.48 29.14 113.46 32.20 113.40 35.26 C 107.94 35.13 102.47 35.21 97.01 35.19 C 96.99 39.46 97.00 43.74 97.00 48.01 C 101.17 47.95 105.34 47.90 109.50 47.72 C 109.47 50.90 109.47 54.08 109.49 57.26 C 105.36 57.26 101.23 57.43 97.10 57.40 C 96.88 62.00 97.04 66.61 97.00 71.21 C 102.52 71.00 108.03 70.67 113.53 70.21 C 113.47 73.23 113.44 76.25 113.48 79.26 C 104.88 79.85 96.30 80.79 87.70 81.49 C 87.89 62.99 87.74 44.50 87.79 26.01 Z" />
<path fill="#e50914" opacity="1.00" d=" M 119.49 26.09 C 129.16 25.94 138.83 25.96 148.50 26.08 C 148.47 29.15 148.54 32.23 148.33 35.30 C 145.12 35.18 141.91 35.19 138.71 35.21 C 138.80 49.67 138.66 64.13 138.80 78.59 C 135.60 78.48 132.41 78.47 129.21 78.58 C 129.33 64.12 129.21 49.66 129.29 35.21 C 126.05 35.18 122.81 35.20 119.57 35.29 C 119.52 32.23 119.51 29.16 119.49 26.09 Z" />
<path fill="#e50914" opacity="1.00" d=" M 154.49 26.09 C 163.24 25.94 172.01 25.91 180.77 26.00 C 180.75 29.07 180.74 32.13 180.83 35.20 C 175.16 35.35 169.50 35.30 163.84 35.23 C 163.68 39.25 163.81 43.27 163.70 47.29 C 167.99 47.21 172.28 47.28 176.57 47.23 C 176.45 50.41 176.45 53.59 176.55 56.77 C 172.26 56.72 167.97 56.79 163.69 56.68 C 163.82 63.80 163.70 70.91 163.77 78.02 C 160.64 78.10 157.52 78.16 154.40 77.90 C 154.58 60.63 154.55 43.36 154.49 26.09 Z" />
<path fill="#e50914" opacity="1.00" d=" M 186.46 26.04 C 189.56 25.95 192.66 25.94 195.77 26.01 C 195.71 40.61 195.70 55.20 195.78 69.79 C 201.12 69.90 206.44 70.38 211.78 70.43 C 211.72 73.57 211.73 76.71 211.83 79.85 C 203.36 79.29 194.88 78.80 186.39 78.61 C 186.74 61.09 186.46 43.56 186.46 26.04 Z" />
<path fill="#e50914" opacity="1.00" d=" M 219.74 25.99 C 222.83 25.97 225.91 25.97 229.00 26.00 C 228.98 44.40 229.12 62.81 228.98 81.21 C 225.88 81.00 222.79 80.76 219.69 80.51 C 219.84 62.33 219.65 44.16 219.74 25.99 Z" />
<path fill="#e50914" opacity="1.00" d=" M 237.02 26.03 C 240.34 25.96 243.66 25.96 246.98 26.00 C 249.08 31.06 251.00 36.19 253.07 41.26 C 256.11 36.57 257.04 30.68 260.03 26.04 C 263.34 25.81 266.67 26.06 269.98 26.03 C 265.97 35.44 262.13 44.93 258.00 54.30 C 261.91 64.93 266.02 75.50 270.12 86.07 C 266.65 85.43 263.18 84.74 259.67 84.41 C 257.12 78.68 255.08 72.74 252.69 66.94 C 250.51 72.38 247.95 77.66 245.82 83.12 C 242.49 82.66 239.16 82.23 235.84 81.72 C 239.43 73.09 243.27 64.55 247.01 55.98 C 247.57 54.97 247.74 53.81 247.18 52.76 C 243.77 43.86 240.34 34.96 237.02 26.03 Z" />
<path fill="#e50914" opacity="1.00" d=" M 123.13 44.14 C 124.79 43.67 125.33 44.24 124.76 45.84 C 123.10 46.31 122.56 45.75 123.13 44.14 Z" />
</g>
</svg>
